REM DIRINDEX 1\8,1\2\11,1\3\12,1\3\14,1\5\15,1\5\16,1\6\17,1\6\18,1\4\19,1\4\20,1\4\21,1\4\22,1\7\23,1\7\24,1\7\25,1\2\9\26,1\2\9\27,1\2\10\28,1\2\10\29,1\2\10\30,1\2\10\31,1\2\10\32,1\3\13\33,1\3\13\34,1\3\13\35
REM DIRNAME folder01,folder02,folder03,folder04,folder05,folder06,folder07,folder08,folder09,folder10,folder11,folder12,folder13,folder14,folder15,folder16,folder17,folder18,folder19,folder20,folder21,folder22,folder23,folder24,folder25,folder26,folder27,folder28,folder29,folder30,folder31,folder32,folder33,folder34,folder35
TITLE ""
FILE "90 090_UNIT3_SET2.mp3" MP3
  TRACK 01 AUDIO
    TITLE "14:cjc123_7866"
    INDEX 01 00:00:00
  TRACK 02 AUDIO
    TITLE "0:"
    INDEX 01 00:02:47
  TRACK 03 AUDIO
    TITLE "33:cjc123_7867"
    INDEX 01 00:03:31
  TRACK 04 AUDIO
    TITLE "0:"
    INDEX 01 00:04:29
  TRACK 05 AUDIO
    TITLE "34:cjc123_7868"
    INDEX 01 00:04:54
  TRACK 06 AUDIO
    TITLE "0:"
    INDEX 01 00:05:56
  TRACK 07 AUDIO
    TITLE "35:cjc123_7869"
    INDEX 01 00:06:28
  TRACK 08 AUDIO
    TITLE "0:"
    INDEX 01 00:10:35
  TRACK 09 AUDIO
    TITLE "33:cjc123_7870"
    INDEX 01 00:11:13
  TRACK 10 AUDIO
    TITLE "0:"
    INDEX 01 00:12:14
  TRACK 11 AUDIO
    TITLE "34:cjc123_7871"
    INDEX 01 00:12:40
  TRACK 12 AUDIO
    TITLE "0:"
    INDEX 01 00:13:47
  TRACK 13 AUDIO
    TITLE "35:cjc123_7872"
    INDEX 01 00:14:21
  TRACK 14 AUDIO
    TITLE "0:"
    INDEX 01 00:17:08
  TRACK 15 AUDIO
    TITLE "33:cjc123_7873"
    INDEX 01 00:17:57
  TRACK 16 AUDIO
    TITLE "0:"
    INDEX 01 00:18:56
  TRACK 17 AUDIO
    TITLE "34:cjc123_7874"
    INDEX 01 00:18:64
  TRACK 18 AUDIO
    TITLE "0:"
    INDEX 01 00:19:63
  TRACK 19 AUDIO
    TITLE "35:cjc123_7875"
    INDEX 01 00:20:36
  TRACK 20 AUDIO
    TITLE "0:"
    INDEX 01 00:25:11
  TRACK 21 AUDIO
    TITLE "33:cjc123_7876"
    INDEX 01 00:25:64
  TRACK 22 AUDIO
    TITLE "0:"
    INDEX 01 00:26:52
  TRACK 23 AUDIO
    TITLE "34:cjc123_7877"
    INDEX 01 00:26:64
  TRACK 24 AUDIO
    TITLE "0:"
    INDEX 01 00:27:49
  TRACK 25 AUDIO
    TITLE "35:cjc123_7878"
    INDEX 01 00:28:31
  TRACK 26 AUDIO
    TITLE "0:"
    INDEX 01 00:31:55
  TRACK 27 AUDIO
    TITLE "33:cjc123_7879"
    INDEX 01 00:32:29
  TRACK 28 AUDIO
    TITLE "0:"
    INDEX 01 00:33:38
  TRACK 29 AUDIO
    TITLE "34:cjc123_7880"
    INDEX 01 00:33:44
  TRACK 30 AUDIO
    TITLE "0:"
    INDEX 01 00:34:47
  TRACK 31 AUDIO
    TITLE "35:cjc123_7881"
    INDEX 01 00:35:23
  TRACK 32 AUDIO
    TITLE "0:"
    INDEX 01 00:38:47
  TRACK 33 AUDIO
    TITLE "33:cjc123_7882"
    INDEX 01 00:39:19
  TRACK 34 AUDIO
    TITLE "0:"
    INDEX 01 00:40:23
  TRACK 35 AUDIO
    TITLE "34:cjc123_7883"
    INDEX 01 00:40:48
  TRACK 36 AUDIO
    TITLE "0:"
    INDEX 01 00:41:65
  TRACK 37 AUDIO
    TITLE "35:cjc123_7884"
    INDEX 01 00:42:37
  TRACK 38 AUDIO
    TITLE "0:"
    INDEX 01 00:46:29
  TRACK 39 AUDIO
    TITLE "33:cjc123_7885"
    INDEX 01 00:47:13
  TRACK 40 AUDIO
    TITLE "0:"
    INDEX 01 00:48:32
  TRACK 41 AUDIO
    TITLE "34:cjc123_7886"
    INDEX 01 00:48:57
  TRACK 42 AUDIO
    TITLE "0:"
    INDEX 01 00:49:65
  TRACK 43 AUDIO
    TITLE "35:cjc123_7887"
    INDEX 01 00:50:39
  TRACK 44 AUDIO
    TITLE "0:"
    INDEX 01 00:53:74
  TRACK 45 AUDIO
    TITLE "33:cjc123_7888"
    INDEX 01 00:54:56
  TRACK 46 AUDIO
    TITLE "0:"
    INDEX 01 00:55:55
  TRACK 47 AUDIO
    TITLE "34:cjc123_7889"
    INDEX 01 00:56:18
  TRACK 48 AUDIO
    TITLE "0:"
    INDEX 01 00:57:19
  TRACK 49 AUDIO
    TITLE "35:cjc123_7890"
    INDEX 01 00:57:66
  TRACK 50 AUDIO
    TITLE "0:"
    INDEX 01 01:02:01
  TRACK 51 AUDIO
    TITLE "33:cjc123_7891"
    INDEX 01 01:02:55
  TRACK 52 AUDIO
    TITLE "0:"
    INDEX 01 01:03:55
  TRACK 53 AUDIO
    TITLE "34:cjc123_7892"
    INDEX 01 01:04:07
  TRACK 54 AUDIO
    TITLE "0:"
    INDEX 01 01:04:74
  TRACK 55 AUDIO
    TITLE "35:cjc123_7893"
    INDEX 01 01:05:48
  TRACK 56 AUDIO
    TITLE "0:"
    INDEX 01 01:08:50
  TRACK 57 AUDIO
    TITLE "33:cjc123_7894"
    INDEX 01 01:09:42
  TRACK 58 AUDIO
    TITLE "0:"
    INDEX 01 01:10:30
  TRACK 59 AUDIO
    TITLE "34:cjc123_7895"
    INDEX 01 01:10:49
  TRACK 60 AUDIO
    TITLE "0:"
    INDEX 01 01:11:29
  TRACK 61 AUDIO
    TITLE "35:cjc123_7896"
    INDEX 01 01:12:13
  TRACK 62 AUDIO
    TITLE "0:"
    INDEX 01 01:15:29
  TRACK 63 AUDIO
    TITLE "33:cjc123_7897"
    INDEX 01 01:16:09
  TRACK 64 AUDIO
    TITLE "0:"
    INDEX 01 01:17:28
  TRACK 65 AUDIO
    TITLE "34:cjc123_7898"
    INDEX 01 01:17:59
  TRACK 66 AUDIO
    TITLE "0:"
    INDEX 01 01:18:74
  TRACK 67 AUDIO
    TITLE "35:cjc123_7899"
    INDEX 01 01:19:48
  TRACK 68 AUDIO
    TITLE "0:"
    INDEX 01 01:22:50
  TRACK 69 AUDIO
    TITLE "33:cjc123_7900"
    INDEX 01 01:23:22
  TRACK 70 AUDIO
    TITLE "0:"
    INDEX 01 01:24:20
  TRACK 71 AUDIO
    TITLE "34:cjc123_7901"
    INDEX 01 01:24:47
  TRACK 72 AUDIO
    TITLE "0:"
    INDEX 01 01:25:47
  TRACK 73 AUDIO
    TITLE "35:cjc123_7902"
    INDEX 01 01:26:25
  TRACK 74 AUDIO
    TITLE "0:"
    INDEX 01 01:29:62
  TRACK 75 AUDIO
    TITLE "33:cjc123_7903"
    INDEX 01 01:30:40
  TRACK 76 AUDIO
    TITLE "0:"
    INDEX 01 01:31:49
  TRACK 77 AUDIO
    TITLE "34:cjc123_7904"
    INDEX 01 01:32:15
  TRACK 78 AUDIO
    TITLE "0:"
    INDEX 01 01:33:23
  TRACK 79 AUDIO
    TITLE "35:cjc123_7905"
    INDEX 01 01:33:72
  TRACK 80 AUDIO
    TITLE "0:"
    INDEX 01 01:37:11
  TRACK 81 AUDIO
    TITLE "33:cjc123_7906"
    INDEX 01 01:37:71
  TRACK 82 AUDIO
    TITLE "0:"
    INDEX 01 01:38:67
  TRACK 83 AUDIO
    TITLE "34:cjc123_7907"
    INDEX 01 01:39:25
  TRACK 84 AUDIO
    TITLE "0:"
    INDEX 01 01:40:31
  TRACK 85 AUDIO
    TITLE "35:cjc123_7908"
    INDEX 01 01:41:07
  TRACK 86 AUDIO
    TITLE "0:"
    INDEX 01 01:45:26
  TRACK 87 AUDIO
    TITLE "33:cjc123_7909"
    INDEX 01 01:46:19
  TRACK 88 AUDIO
    TITLE "0:"
    INDEX 01 01:47:37
  TRACK 89 AUDIO
    TITLE "34:cjc123_7910"
    INDEX 01 01:47:62
  TRACK 90 AUDIO
    TITLE "0:"
    INDEX 01 01:48:67
  TRACK 91 AUDIO
    TITLE "35:cjc123_7911"
    INDEX 01 01:49:35
  TRACK 92 AUDIO
    TITLE "0:"
    INDEX 01 01:52:14
